<svg id="Layer_1" xmlns="http://www.w3.org/2000/svg" viewBox="0 0 340.9 149.3"><style>.st0{fill:#fff}</style><path class="st0" d="M11.4 138.5c1.2 1.1 1.7 2.3 1.7 3.7v3.6c0 1.9-1.6 3.5-3.5 3.5H4.4c-1.9 0-3.5-1.6-3.5-3.5v-3.5h3.5v3.5h5.3v-4.1l-7.1-7C1.4 133.6.9 132.4.9 131v-2.7c0-1.9 1.6-3.5 3.5-3.5h5.3c1.9 0 3.5 1.6 3.5 3.5v3.5H9.6v-3.5H4.4v3.2l7 7zM52.1 149.3h-5.2c-1.9 0-3.5-1.6-3.5-3.5v-17.5c0-1.9 1.6-3.5 3.5-3.5h5.2c1.9 0 3.5 1.6 3.5 3.5v17.5c0 1.9-1.5 3.5-3.5 3.5zm0-3.5v-17.5h-5.2v17.5h5.2zM96.4 149.3H85.9v-24.5h3.5v21h7v3.5zM138.1 145.8c0 1.9-1.6 3.5-3.5 3.5h-5.2c-1.9 0-3.5-1.6-3.5-3.5v-21h3.5v21h5.2v-21h3.5v21zM179.7 128.3h-4.4v21h-3.5v-21h-4.4v-3.5h12.3v3.5zM212.6 149.3h-3.5v-24.5h3.5v24.5zM251.6 149.3h-5.2c-1.9 0-3.5-1.6-3.5-3.5v-17.5c0-1.9 1.6-3.5 3.5-3.5h5.2c1.9 0 3.5 1.6 3.5 3.5v17.5c0 1.9-1.5 3.5-3.5 3.5zm0-3.5v-17.5h-5.2v17.5h5.2zM297.7 149.3h-3.1l-5.7-16v16h-3.5v-24.5h3.8l5 14.4v-14.4h3.5v24.5zM338.5 138.5c1.2 1.1 1.7 2.3 1.7 3.7v3.6c0 1.9-1.6 3.5-3.5 3.5h-5.2c-1.9 0-3.5-1.6-3.5-3.5v-3.5h3.5v3.5h5.2v-4.1l-7.1-7c-1.2-1.1-1.7-2.3-1.7-3.7v-2.7c0-1.9 1.6-3.5 3.5-3.5h5.2c1.9 0 3.5 1.6 3.5 3.5v3.5h-3.5v-3.5h-5.2v3.2l7.1 7zM338 2h-48.8l-25 24.8h38.6L258 74.5l.1 24.5L316 40.1v37.5l24.9-23.9V4.9c0-1.6-1.3-2.9-2.9-2.9z"/><g><path class="st0" d="M147.9 26.8h36.4c9.3-21.6 26.2-25 26.2-25s-29.1.2-63.3.2c-23.9 0-31.5 14.4-33.9 23-1 3.8-.9 6.6-.9 6.6.1 3 .5 5.4.9 7.4 3.8 17.9 20.2 21.2 28.6 23.1 9.4 2.2 13.3 3.9 12.5 7.7-.8 3.8-3.8 3.3-3.8 3.3h-40.9V.3L66.9 39.5V0L0 64.9V101l41.1-37.8v37L81 63.4v36.3h65.3c30.2 0 34.4-12 36.2-24.6 1.8-12.6-4.8-24.2-13.9-29.8-9.1-5.6-21.3-7.6-21.3-7.6-8.7-1.3-8-5.4-8-5.4 0-5.4 7.1-5.5 8.6-5.5z"/><path class="st0" d="M212 50.1s-.2-11.9 11.7-19.5c0 0 7.1-4.4 19.3-3.7l26.9-25.1h-39.7s-20.2.9-32.1 15.6c-12 14.7-12.1 26.4-12.2 32.8-.1 5.9-2.4 49.6 49.9 49.5h7.5V75.9c-10-.1-31.8-3.1-31.3-25.8z"/></g></svg>