<?xml version="1.0" encoding="UTF-8" standalone="no"?>
<svg
   xmlns:dc="http://purl.org/dc/elements/1.1/"
   xmlns:cc="http://creativecommons.org/ns#"
   xmlns:rdf="http://www.w3.org/1999/02/22-rdf-syntax-ns#"
   xmlns:svg="http://www.w3.org/2000/svg"
   xmlns="http://www.w3.org/2000/svg"
   viewBox="0 0 908.45331 249.09332"
   height="249.09332"
   width="908.45331"
   xml:space="preserve"
   id="svg2"
   version="1.1"><metadata
     id="metadata8"><rdf:RDF><cc:Work
         rdf:about=""><dc:format>image/svg+xml</dc:format><dc:type
           rdf:resource="http://purl.org/dc/dcmitype/StillImage" /></cc:Work></rdf:RDF></metadata><defs
     id="defs6"><clipPath
       id="clipPath38"
       clipPathUnits="userSpaceOnUse"><path
         id="path36"
         d="M 0,0 H 6813 V 1868 H 0 Z" /></clipPath><clipPath
       id="clipPath44"
       clipPathUnits="userSpaceOnUse"><path
         id="path42"
         d="m 1143.57,1417.74 c 0,0 1116.12,294.44 2321.56,294.44 1205.5,0 2366.01,-259.88 2366.01,-259.88 0,0 -1205.32,415.89 -2343.81,415.89 -1138.4,0 -2343.76,-450.45 -2343.76,-450.45" /></clipPath><clipPath
       id="clipPath50"
       clipPathUnits="userSpaceOnUse"><path
         id="path48"
         d="m 1171.16,2226.76 4694.43,-361.22 -62.04,-806.37 -4694.44,361.22 z" /></clipPath><linearGradient
       id="linearGradient58"
       spreadMethod="pad"
       gradientTransform="matrix(4167.19,-320.648,320.648,4167.19,585.881,1866.22)"
       gradientUnits="userSpaceOnUse"
       y2="0"
       x2="1"
       y1="0"
       x1="0"><stop
         id="stop52"
         offset="0"
         style="stop-opacity:1;stop-color:#ffffff" /><stop
         id="stop54"
         offset="0.0258661"
         style="stop-opacity:1;stop-color:#ffffff" /><stop
         id="stop56"
         offset="1"
         style="stop-opacity:1;stop-color:#de1c2b" /></linearGradient></defs><g
     transform="matrix(1.3333333,0,0,-1.3333333,0,249.09333)"
     id="g10"><g
       transform="scale(0.1)"
       id="g12"><path
         id="path14"
         style="fill:#de1c2a;fill-opacity:1;fill-rule:nonzero;stroke:none"
         d="m 0,1368.79 h 556.043 c 55.039,0 100.789,-15.27 138.977,-42.72 70.347,-53.5 93.269,-103.91 93.269,-186.36 V 950.184 c 0,-39.684 -12.23,-77.871 -35.152,-113.063 C 710.375,773.02 643.105,736.371 579.012,736.371 H 391.066 L 795.945,268.84 H 585.125 L 180.242,737.871 c -12.23,12.18 -19.84,42.801 -9.195,81.039 9.195,36.641 41.269,65.633 87.156,74.738 9.106,1.586 18.301,1.586 27.449,1.586 h 239.86 c 4.574,0 10.691,1.539 15.218,1.539 59.614,10.692 87.157,42.762 87.157,88.653 v 122.124 c 0,6.12 0,13.73 -1.586,19.93 -7.61,47.29 -32.071,73.34 -79.453,81 -4.532,0 -10.645,1.45 -16.762,1.45 H 158.816 V 268.84 H 0 v 1099.95" /><path
         id="path16"
         style="fill:#de1c2a;fill-opacity:1;fill-rule:nonzero;stroke:none"
         d="m 1087.68,852.488 c 0,73.246 27.54,103.867 93.18,103.867 h 224.59 c 62.65,0 83.98,-18.39 83.98,-71.796 V 872.328 L 1087.68,685.879 Z M 950.195,485.789 c 0,-51.91 16.852,-99.289 45.797,-137.43 44.398,-56.629 97.798,-79.5 178.748,-79.5 h 461.37 V 406.34 h -453.67 c -65.72,0 -82.53,16.851 -94.76,91.68 v 9.109 27.543 l 539.28,250.59 v 97.758 c 0,132.86 -82.53,210.82 -216.89,210.82 h -204.75 c -174.17,0 -255.125,-80.95 -255.125,-238.27 V 485.789" /><path
         id="path18"
         style="fill:#de1c2a;fill-opacity:1;fill-rule:nonzero;stroke:none"
         d="m 1938.61,493.488 v 371.133 c 0,65.731 26,91.731 90.14,91.731 h 226.13 c 4.53,0 9.16,0 15.23,-1.586 54.99,-4.575 74.83,-29.036 74.83,-87.067 v -363.57 c 0,-35.098 -12.19,-61.098 -36.65,-77.957 -15.26,-13.633 -35.1,-19.844 -53.41,-19.844 h -241.44 c -4.53,0 -9.1,0 -15.26,1.594 -33.57,7.609 -50.38,27.449 -57.99,76.367 -1.58,2.992 -1.58,6.07 -1.58,9.199 m -137.48,-9.199 c 0,-96.211 38.18,-157.32 123.71,-195.598 32.07,-13.679 58.12,-19.839 80.99,-19.839 h 270.39 c 56.53,0 100.88,21.429 148.17,73.339 44.31,50.418 58.12,87.059 58.12,158.95 V 1368.8 h -137.57 v -274.96 h -320.76 c -131.41,0 -200.13,-55 -220.06,-169.559 -1.45,-12.187 -2.99,-26.004 -2.99,-38.234 V 484.289" /><path
         id="path20"
         style="fill:#75797b;fill-opacity:1;fill-rule:nonzero;stroke:none"
         d="m 2833.88,427.781 v 308.571 h 363.61 c 15.22,0 32.03,-4.622 50.38,-12.231 39.68,-19.84 59.52,-50.461 59.52,-76.332 V 543.828 c 0,-16.758 -6.12,-38.137 -16.76,-56.527 -19.8,-36.692 -58.07,-59.52 -96.26,-59.52 z m -158.91,-158.91 h 539.24 c 139.07,0 252.09,116.098 252.09,284.16 v 102.367 c 0,12.243 0,22.883 -2.99,35.071 -12.23,67.312 -44.3,111.609 -91.69,132.953 47.39,29.078 80.95,76.414 91.69,146.676 2.99,12.226 2.99,22.965 2.99,33.562 v 132.95 c 0,24.46 -4.49,50.37 -15.22,77.87 -41.32,103.96 -117.64,154.29 -218.52,154.29 h -557.59 z m 158.91,626.391 v 314.688 h 362.03 c 7.65,0 13.77,-1.49 19.89,-3.08 61.15,-12.23 91.59,-47.33 91.59,-99.29 v -105.41 c 0,-41.182 -15.22,-68.721 -47.29,-90.104 -16.81,-10.781 -36.65,-16.804 -61.11,-16.804 h -365.11" /><path
         id="path22"
         style="fill:#75797b;fill-opacity:1;fill-rule:nonzero;stroke:none"
         d="m 3648.18,875.41 c 0,15.223 1.41,32.074 3.04,47.293 12.23,108.497 54.9,151.257 164.88,168.107 12.23,1.45 24.47,3.03 35.25,3.03 h 77.77 V 954.773 h -67.13 c -18.25,0 -35.06,-6.023 -47.29,-15.218 -23.01,-15.266 -29.08,-30.578 -29.08,-67.223 V 268.859 H 3648.18 V 875.41" /><path
         id="path24"
         style="fill:#75797b;fill-opacity:1;fill-rule:nonzero;stroke:none"
         d="m 4043.74,1093.81 h 137.48 V 268.82 h -137.48 z m 1.58,246.01 c 35.11,38.14 94.81,38.14 131.46,1.45 38.09,-36.64 38.09,-97.75 1.4,-135.94 -36.64,-36.64 -96.17,-36.64 -132.86,1.54 -18.39,16.81 -27.45,41.27 -27.45,67.23 0,24.41 9.06,48.87 27.45,65.72" /><path
         id="path26"
         style="fill:#75797b;fill-opacity:1;fill-rule:nonzero;stroke:none"
         d="m 4512.8,493.488 v 371.133 c 0,65.731 25.92,91.731 90.19,91.731 h 226.05 c 4.57,0 9.19,0 15.22,-1.586 55.08,-4.575 74.92,-29.036 74.92,-87.067 v -363.57 c 0,-35.098 -12.23,-61.098 -36.65,-77.957 -15.4,-13.633 -35.24,-19.844 -53.49,-19.844 h -241.45 c -4.62,0 -9.06,0 -15.26,1.594 -33.61,7.609 -50.47,27.449 -58.08,76.367 -1.45,2.992 -1.45,6.07 -1.45,9.199 m -137.43,-9.199 c 0,-96.211 38.09,-157.32 123.66,-195.598 32.03,-13.679 58.08,-19.839 80.95,-19.839 h 270.48 c 56.49,0 100.79,21.429 148.13,73.339 44.26,50.418 58.07,87.059 58.07,158.95 V 1368.8 h -137.48 v -274.96 h -320.81 c -131.41,0 -200.17,-55 -220.01,-169.559 -1.59,-12.187 -2.99,-26.004 -2.99,-38.234 V 484.289" /><path
         id="path28"
         style="fill:#75797b;fill-opacity:1;fill-rule:nonzero;stroke:none"
         d="m 5392.7,504.129 v 360.492 c 0,50.457 26.05,81.035 79.54,90.141 6.03,1.633 12.23,1.633 18.26,1.633 h 232.25 c 24.41,0 45.84,-10.739 59.52,-29.082 12.23,-15.223 15.22,-27.454 15.22,-64.141 V 505.711 490.359 c -2.99,-51.961 -18.26,-71.8 -57.94,-82.449 -6.16,-1.582 -12.23,-1.582 -16.8,-1.582 H 5481.3 c -50.32,0 -77.96,26.051 -88.6,85.57 z M 5249.06,0 h 450.81 c 137.44,0 209.23,56.4883 232.07,166.469 1.58,12.23 3.17,24.461 3.17,36.691 v 690.492 c 0,12.231 -1.59,24.461 -3.17,36.696 -15.23,105.412 -85.57,163.482 -190.94,163.482 h -291.77 c -21.47,0 -44.3,-4.62 -70.17,-15.27 -79.54,-32.02 -123.8,-99.337 -123.8,-195.552 V 493.48 c 0,-67.308 18.26,-113.109 61.06,-158.898 44.31,-44.312 93.23,-65.73 152.75,-65.73 h 328.42 v -35.063 c 0,-6.211 0,-12.23 -1.41,-18.398 -9.24,-58.02 -39.68,-77.95 -102.42,-77.95 h -444.6 V 0" /><path
         id="path30"
         style="fill:#75797b;fill-opacity:1;fill-rule:nonzero;stroke:none"
         d="m 6264.98,852.488 c 0,73.246 27.63,103.867 93.31,103.867 h 224.5 c 62.7,0 84.12,-18.39 84.12,-71.796 V 872.328 L 6264.98,685.879 Z M 6127.49,485.789 c 0,-51.91 16.86,-99.289 45.89,-137.43 44.3,-56.629 97.8,-79.5 178.75,-79.5 h 461.28 V 406.34 h -453.67 c -65.73,0 -82.53,16.851 -94.76,91.68 v 9.109 27.543 l 539.41,250.59 v 97.758 c 0,132.86 -82.57,210.82 -217.02,210.82 h -204.62 c -174.31,0 -255.26,-80.95 -255.26,-238.27 V 485.789" /><g
         id="g32"><g
           clip-path="url(#clipPath38)"
           id="g34"><g
             clip-path="url(#clipPath44)"
             id="g40"><g
               clip-path="url(#clipPath50)"
               id="g46"><path
                 id="path60"
                 style="fill:url(#linearGradient58);fill-opacity:1;fill-rule:nonzero;stroke:none"
                 d="m 1143,1417 v 1 h 1 v 1 h 2 v 1 h 3 v 1 h 3 v 1 h 3 v 1 h 2 v 1 h 3 v 1 h 3 v 1 h 3 v 1 h 3 v 1 h 2 v 1 h 3 v 1 h 3 v 1 h 3 v 1 h 3 v 1 h 2 v 1 h 3 v 1 h 3 v 1 h 3 v 1 h 3 v 1 h 3 v 1 h 3 v 1 h 2 v 1 h 3 v 1 h 3 v 1 h 3 v 1 h 3 v 1 h 3 v 1 h 3 v 1 h 3 v 1 h 3 v 1 h 2 v 1 h 3 v 1 h 3 v 1 h 3 v 1 h 3 v 1 h 3 v 1 h 3 v 1 h 3 v 1 h 3 v 1 h 3 v 1 h 3 v 1 h 3 v 1 h 3 v 1 h 3 v 1 h 3 v 1 h 3 v 1 h 3 v 1 h 3 v 1 h 3 v 1 h 3 v 1 h 3 v 1 h 3 v 1 h 3 v 1 h 3 v 1 h 3 v 1 h 3 v 1 h 3 v 1 h 3 v 1 h 3 v 1 h 3 v 1 h 3 v 1 h 3 v 1 h 3 v 1 h 3 v 1 h 3 v 1 h 4 v 1 h 3 v 1 h 3 v 1 h 3 v 1 h 3 v 1 h 3 v 1 h 3 v 1 h 3 v 1 h 3 v 1 h 3 v 1 h 4 v 1 h 3 v 1 h 3 v 1 h 3 v 1 h 3 v 1 h 3 v 1 h 3 v 1 h 3 v 1 h 4 v 1 h 3 v 1 h 3 v 1 h 3 v 1 h 3 v 1 h 3 v 1 h 4 v 1 h 3 v 1 h 3 v 1 h 3 v 1 h 3 v 1 h 4 v 1 h 3 v 1 h 3 v 1 h 3 v 1 h 4 v 1 h 3 v 1 h 3 v 1 h 3 v 1 h 3 v 1 h 4 v 1 h 3 v 1 h 3 v 1 h 3 v 1 h 4 v 1 h 3 v 1 h 3 v 1 h 4 v 1 h 3 v 1 h 3 v 1 h 3 v 1 h 4 v 1 h 3 v 1 h 3 v 1 h 4 v 1 h 3 v 1 h 3 v 1 h 4 v 1 h 3 v 1 h 3 v 1 h 4 v 1 h 3 v 1 h 3 v 1 h 4 v 1 h 3 v 1 h 3 v 1 h 4 v 1 h 3 v 1 h 4 v 1 h 3 v 1 h 3 v 1 h 4 v 1 h 3 v 1 h 4 v 1 h 3 v 1 h 3 v 1 h 4 v 1 h 3 v 1 h 4 v 1 h 3 v 1 h 4 v 1 h 3 v 1 h 3 v 1 h 4 v 1 h 3 v 1 h 4 v 1 h 3 v 1 h 4 v 1 h 3 v 1 h 4 v 1 h 3 v 1 h 4 v 1 h 3 v 1 h 4 v 1 h 3 v 1 h 4 v 1 h 3 v 1 h 4 v 1 h 3 v 1 h 4 v 1 h 3 v 1 h 4 v 1 h 4 v 1 h 3 v 1 h 4 v 1 h 3 v 1 h 4 v 1 h 3 v 1 h 4 v 1 h 4 v 1 h 3 v 1 h 4 v 1 h 3 v 1 h 4 v 1 h 4 v 1 h 3 v 1 h 4 v 1 h 4 v 1 h 3 v 1 h 4 v 1 h 4 v 1 h 3 v 1 h 4 v 1 h 4 v 1 h 3 v 1 h 4 v 1 h 4 v 1 h 3 v 1 h 4 v 1 h 4 v 1 h 3 v 1 h 4 v 1 h 4 v 1 h 4 v 1 h 4 v 1 h 3 v 1 h 4 v 1 h 4 v 1 h 4 v 1 h 3 v 1 h 4 v 1 h 4 v 1 h 4 v 1 h 4 v 1 h 3 v 1 h 4 v 1 h 4 v 1 h 4 v 1 h 4 v 1 h 3 v 1 h 4 v 1 h 4 v 1 h 4 v 1 h 4 v 1 h 4 v 1 h 4 v 1 h 4 v 1 h 4 v 1 h 3 v 1 h 4 v 1 h 4 v 1 h 4 v 1 h 4 v 1 h 4 v 1 h 4 v 1 h 4 v 1 h 4 v 1 h 4 v 1 h 4 v 1 h 4 v 1 h 4 v 1 h 4 v 1 h 4 v 1 h 4 v 1 h 4 v 1 h 4 v 1 h 4 v 1 h 4 v 1 h 4 v 1 h 4 v 1 h 5 v 1 h 4 v 1 h 4 v 1 h 4 v 1 h 4 v 1 h 4 v 1 h 4 v 1 h 4 v 1 h 5 v 1 h 4 v 1 h 4 v 1 h 4 v 1 h 4 v 1 h 4 v 1 h 5 v 1 h 4 v 1 h 4 v 1 h 4 v 1 h 5 v 1 h 4 v 1 h 4 v 1 h 4 v 1 h 5 v 1 h 4 v 1 h 4 v 1 h 5 v 1 h 4 v 1 h 4 v 1 h 5 v 1 h 4 v 1 h 4 v 1 h 5 v 1 h 4 v 1 h 4 v 1 h 5 v 1 h 4 v 1 h 5 v 1 h 4 v 1 h 5 v 1 h 4 v 1 h 5 v 1 h 4 v 1 h 5 v 1 h 4 v 1 h 5 v 1 h 4 v 1 h 5 v 1 h 4 v 1 h 5 v 1 h 4 v 1 h 5 v 1 h 5 v 1 h 4 v 1 h 5 v 1 h 4 v 1 h 5 v 1 h 5 v 1 h 5 v 1 h 4 v 1 h 5 v 1 h 5 v 1 h 4 v 1 h 5 v 1 h 5 v 1 h 5 v 1 h 4 v 1 h 5 v 1 h 5 v 1 h 5 v 1 h 5 v 1 h 5 v 1 h 5 v 1 h 4 v 1 h 5 v 1 h 5 v 1 h 5 v 1 h 5 v 1 h 5 v 1 h 5 v 1 h 5 v 1 h 5 v 1 h 5 v 1 h 5 v 1 h 5 v 1 h 5 v 1 h 6 v 1 h 5 v 1 h 5 v 1 h 5 v 1 h 5 v 1 h 6 v 1 h 5 v 1 h 5 v 1 h 5 v 1 h 5 v 1 h 6 v 1 h 5 v 1 h 6 v 1 h 5 v 1 h 5 v 1 h 6 v 1 h 5 v 1 h 5 v 1 h 6 v 1 h 5 v 1 h 6 v 1 h 6 v 1 h 5 v 1 h 6 v 1 h 5 v 1 h 6 v 1 h 5 v 1 h 6 v 1 h 6 v 1 h 6 v 1 h 6 v 1 h 5 v 1 h 6 v 1 h 6 v 1 h 6 v 1 h 6 v 1 h 6 v 1 h 6 v 1 h 6 v 1 h 6 v 1 h 6 v 1 h 6 v 1 h 6 v 1 h 6 v 1 h 6 v 1 h 7 v 1 h 6 v 1 h 6 v 1 h 7 v 1 h 6 v 1 h 6 v 1 h 7 v 1 h 6 v 1 h 7 v 1 h 7 v 1 h 6 v 1 h 7 v 1 h 6 v 1 h 7 v 1 h 7 v 1 h 7 v 1 h 7 v 1 h 7 v 1 h 7 v 1 h 7 v 1 h 7 v 1 h 7 v 1 h 7 v 1 h 8 v 1 h 7 v 1 h 7 v 1 h 8 v 1 h 7 v 1 h 8 v 1 h 8 v 1 h 7 v 1 h 8 v 1 h 8 v 1 h 8 v 1 h 8 v 1 h 8 v 1 h 8 v 1 h 9 v 1 h 8 v 1 h 9 v 1 h 8 v 1 h 9 v 1 h 9 v 1 h 9 v 1 h 9 v 1 h 9 v 1 h 9 v 1 h 10 v 1 h 10 v 1 h 10 v 1 h 10 v 1 h 9 v 1 h 10 v 1 h 11 v 1 h 11 v 1 h 11 v 1 h 11 v 1 h 11 v 1 h 12 v 1 h 13 v 1 h 12 v 1 h 12 v 1 h 14 v 1 h 13 v 1 h 14 v 1 h 14 v 1 h 16 v 1 h 16 v 1 h 16 v 1 h 19 v 1 h 19 v 1 h 19 v 1 h 24 v 1 h 25 v 1 h 31 v 1 h 36 v 1 h 208 v -1 h 37 v -1 h 31 v -1 h 27 v -1 h 24 v -1 h 21 v -1 h 21 v -1 h 17 v -1 h 18 v -1 h 17 v -1 h 15 v -1 h 15 v -1 h 15 v -1 h 15 v -1 h 13 v -1 h 13 v -1 h 13 v -1 h 13 v -1 h 12 v -1 h 12 v -1 h 12 v -1 h 12 v -1 h 10 v -1 h 11 v -1 h 11 v -1 h 11 v -1 h 10 v -1 h 10 v -1 h 10 v -1 h 10 v -1 h 10 v -1 h 10 v -1 h 9 v -1 h 10 v -1 h 9 v -1 h 9 v -1 h 9 v -1 h 9 v -1 h 9 v -1 h 8 v -1 h 9 v -1 h 8 v -1 h 9 v -1 h 9 v -1 h 8 v -1 h 8 v -1 h 8 v -1 h 8 v -1 h 8 v -1 h 8 v -1 h 8 v -1 h 7 v -1 h 8 v -1 h 7 v -1 h 8 v -1 h 8 v -1 h 7 v -1 h 8 v -1 h 7 v -1 h 7 v -1 h 7 v -1 h 7 v -1 h 7 v -1 h 8 v -1 h 7 v -1 h 7 v -1 h 6 v -1 h 7 v -1 h 7 v -1 h 7 v -1 h 7 v -1 h 7 v -1 h 6 v -1 h 7 v -1 h 6 v -1 h 7 v -1 h 6 v -1 h 7 v -1 h 6 v -1 h 7 v -1 h 6 v -1 h 7 v -1 h 6 v -1 h 6 v -1 h 6 v -1 h 7 v -1 h 6 v -1 h 6 v -1 h 6 v -1 h 6 v -1 h 6 v -1 h 6 v -1 h 6 v -1 h 6 v -1 h 6 v -1 h 6 v -1 h 6 v -1 h 6 v -1 h 6 v -1 h 6 v -1 h 5 v -1 h 6 v -1 h 6 v -1 h 6 v -1 h 6 v -1 h 5 v -1 h 6 v -1 h 5 v -1 h 6 v -1 h 6 v -1 h 5 v -1 h 6 v -1 h 5 v -1 h 6 v -1 h 5 v -1 h 6 v -1 h 5 v -1 h 6 v -1 h 5 v -1 h 5 v -1 h 6 v -1 h 5 v -1 h 6 v -1 h 5 v -1 h 5 v -1 h 5 v -1 h 6 v -1 h 5 v -1 h 5 v -1 h 5 v -1 h 6 v -1 h 5 v -1 h 5 v -1 h 5 v -1 h 5 v -1 h 5 v -1 h 5 v -1 h 5 v -1 h 6 v -1 h 5 v -1 h 5 v -1 h 5 v -1 h 5 v -1 h 5 v -1 h 5 v -1 h 5 v -1 h 4 v -1 h 5 v -1 h 5 v -1 h 5 v -1 h 5 v -1 h 5 v -1 h 5 v -1 h 5 v -1 h 5 v -1 h 4 v -1 h 5 v -1 h 5 v -1 h 5 v -1 h 5 v -1 h 4 v -1 h 5 v -1 h 5 v -1 h 5 v -1 h 4 v -1 h 5 v -1 h 5 v -1 h 4 v -1 h 5 v -1 h 5 v -1 h 4 v -1 h 5 v -1 h 5 v -1 h 4 v -1 h 5 v -1 h 4 v -1 h 5 v -1 h 5 v -1 h 4 v -1 h 5 v -1 h 4 v -1 h 5 v -1 h 4 v -1 h 5 v -1 h 4 v -1 h 5 v -1 h 4 v -1 h 5 v -1 h 4 v -1 h 4 v -1 h 5 v -1 h 4 v -1 h 5 v -1 h 4 v -1 h 4 v -1 h 5 v -1 h 4 v -1 h 5 v -1 h 4 v -1 h 4 v -1 h 5 v -1 h 4 v -1 h 4 v -1 h 4 v -1 h 5 v -1 h 4 v -1 h 4 v -1 h 5 v -1 h 4 v -1 h 4 v -1 h 4 v -1 h 5 v -1 h 4 v -1 h 4 v -1 h 4 v -1 h 4 v -1 h 5 v -1 h 4 v -1 h 4 v -1 h 4 v -1 h 4 v -1 h 4 v -1 h 5 v -1 h 4 v -1 h 4 v -1 h 4 v -1 h 4 v -1 h 4 v -1 h 4 v -1 h 4 v -1 h 4 v -1 h 5 v -1 h 4 v -1 h 4 v -1 h 4 v -1 h 4 v -1 h 4 v -1 h 4 v -1 h 4 v -1 h 4 v -1 h 4 v -1 h 4 v -1 h 4 v -1 h 4 v -1 h 4 v -1 h 4 v -1 h 4 v -1 h 4 v -1 h 4 v -1 h 4 v -1 h 4 v -1 h 3 v -1 h 4 v -1 h 4 v -1 h 4 v -1 h 4 v -1 h 4 v -1 h 4 v -1 h 4 v -1 h 4 v -1 h 4 v -1 h 3 v -1 h 4 v -1 h 4 v -1 h 4 v -1 h 4 v -1 h 4 v -1 h 3 v -1 h 4 v -1 h 4 v -1 h 4 v -1 h 4 v -1 h 3 v -1 h 4 v -1 h 4 v -1 h 4 v -1 h 4 v -1 h 3 v -1 h 4 v -1 h 4 v -1 h 4 v -1 h 3 v -1 h 4 v -1 h 4 v -1 h 4 v -1 h 3 v -1 h 4 v -1 h 4 v -1 h 3 v -1 h 4 v -1 h 4 v -1 h 3 v -1 h 4 v -1 h 4 v -1 h 3 v -1 h 4 v -1 h 4 v -1 h 3 v -1 h 4 v -1 h 4 v -1 h 3 v -1 h 4 v -1 h 3 v -1 h 4 v -1 h 4 v -1 h 3 v -1 h 4 v -1 h 3 v -1 h 4 v -1 h 4 v -1 h 3 v -1 h 4 v -1 h 3 v -1 h 4 v -1 h 3 v -1 h 4 v -1 h 3 v -1 h 4 v -1 h 3 v -1 h 4 v -1 h 3 v -1 h 4 v -1 h 3 v -1 h 4 v -1 h 3 v -1 h 4 v -1 h 3 v -1 h 4 v -1 h 3 v -1 h 4 v -1 h 3 v -1 h 4 v -1 h 3 v -1 h 4 v -1 h 3 v -1 h 4 v -1 h 3 v -1 h 3 v -1 h 4 v -1 h 3 v -1 h 4 v -1 h 3 v -1 h 3 v -1 h 4 v -1 h 3 v -1 h 4 v -1 h 3 v -1 h 3 v -1 h 4 v -1 h 3 v -1 h 3 v -1 h 4 v -1 h 3 v -1 h 3 v -1 h 4 v -1 h 3 v -1 h 3 v -1 h 4 v -1 h 3 v -1 h 3 v -1 h 4 v -1 h 3 v -1 h 3 v -1 h 4 v -1 h 3 v -1 h 3 v -1 h 3 v -1 h 4 v -1 h 3 v -1 h 3 v -1 h 3 v -1 h 4 v -1 h 3 v -1 h 3 v -1 h 3 v -1 h 4 v -1 h 3 v -1 h 3 v -1 h 3 v -1 h 3 v -1 h 4 v -1 h 3 v -1 h 3 v -1 h 3 v -1 h 3 v -1 h 4 v -1 h 3 v -1 h 3 v -1 h 3 v -1 h 3 v -1 h 3 v -1 h 3 v -1 h 4 v -1 h 3 v -1 h 3 v -1 h 3 v -1 h 3 v -1 h 3 v -1 h 3 v -1 h 3 v -1 h 3 v -1 h 3 v -1 h 4 v -1 h 3 v -1 h 3 v -1 h 3 v -1 h 3 v -1 h 3 v -1 h 3 v -1 h 3 v -1 h 3 v -1 h 3 v -1 h 3 v -1 h 3 v -1 h 3 v -1 h 2 v -1 h -5 v 1 h -4 v 1 h -5 v 1 h -4 v 1 h -5 v 1 h -5 v 1 h -4 v 1 h -5 v 1 h -5 v 1 h -5 v 1 h -4 v 1 h -5 v 1 h -5 v 1 h -5 v 1 h -5 v 1 h -5 v 1 h -4 v 1 h -5 v 1 h -5 v 1 h -5 v 1 h -5 v 1 h -5 v 1 h -5 v 1 h -5 v 1 h -5 v 1 h -5 v 1 h -5 v 1 h -5 v 1 h -5 v 1 h -5 v 1 h -5 v 1 h -5 v 1 h -6 v 1 h -5 v 1 h -5 v 1 h -5 v 1 h -5 v 1 h -5 v 1 h -6 v 1 h -5 v 1 h -5 v 1 h -5 v 1 h -6 v 1 h -5 v 1 h -5 v 1 h -5 v 1 h -6 v 1 h -5 v 1 h -5 v 1 h -6 v 1 h -5 v 1 h -6 v 1 h -5 v 1 h -5 v 1 h -6 v 1 h -5 v 1 h -6 v 1 h -5 v 1 h -6 v 1 h -5 v 1 h -6 v 1 h -5 v 1 h -6 v 1 h -5 v 1 h -6 v 1 h -5 v 1 h -6 v 1 h -6 v 1 h -5 v 1 h -6 v 1 h -6 v 1 h -5 v 1 h -6 v 1 h -6 v 1 h -6 v 1 h -5 v 1 h -6 v 1 h -6 v 1 h -6 v 1 h -5 v 1 h -6 v 1 h -6 v 1 h -6 v 1 h -6 v 1 h -6 v 1 h -6 v 1 h -6 v 1 h -5 v 1 h -6 v 1 h -6 v 1 h -6 v 1 h -6 v 1 h -6 v 1 h -6 v 1 h -7 v 1 h -6 v 1 h -6 v 1 h -6 v 1 h -6 v 1 h -6 v 1 h -6 v 1 h -6 v 1 h -7 v 1 h -6 v 1 h -6 v 1 h -6 v 1 h -7 v 1 h -6 v 1 h -6 v 1 h -7 v 1 h -6 v 1 h -6 v 1 h -7 v 1 h -6 v 1 h -7 v 1 h -6 v 1 h -6 v 1 h -7 v 1 h -7 v 1 h -6 v 1 h -7 v 1 h -6 v 1 h -7 v 1 h -6 v 1 h -7 v 1 h -7 v 1 h -7 v 1 h -6 v 1 h -7 v 1 h -7 v 1 h -7 v 1 h -6 v 1 h -7 v 1 h -7 v 1 h -7 v 1 h -7 v 1 h -7 v 1 h -7 v 1 h -7 v 1 h -7 v 1 h -7 v 1 h -7 v 1 h -7 v 1 h -7 v 1 h -7 v 1 h -7 v 1 h -8 v 1 h -7 v 1 h -7 v 1 h -7 v 1 h -8 v 1 h -7 v 1 h -8 v 1 h -7 v 1 h -7 v 1 h -8 v 1 h -7 v 1 h -8 v 1 h -8 v 1 h -7 v 1 h -8 v 1 h -7 v 1 h -8 v 1 h -8 v 1 h -8 v 1 h -7 v 1 h -8 v 1 h -8 v 1 h -8 v 1 h -8 v 1 h -8 v 1 h -8 v 1 h -8 v 1 h -9 v 1 h -8 v 1 h -8 v 1 h -8 v 1 h -8 v 1 h -9 v 1 h -8 v 1 h -9 v 1 h -8 v 1 h -9 v 1 h -8 v 1 h -9 v 1 h -9 v 1 h -9 v 1 h -8 v 1 h -9 v 1 h -9 v 1 h -9 v 1 h -9 v 1 h -9 v 1 h -9 v 1 h -9 v 1 h -10 v 1 h -9 v 1 h -10 v 1 h -9 v 1 h -9 v 1 h -10 v 1 h -10 v 1 h -10 v 1 h -9 v 1 h -10 v 1 h -10 v 1 h -10 v 1 h -11 v 1 h -10 v 1 h -10 v 1 h -11 v 1 h -10 v 1 h -11 v 1 h -10 v 1 h -11 v 1 h -11 v 1 h -11 v 1 h -12 v 1 h -11 v 1 h -11 v 1 h -12 v 1 h -12 v 1 h -11 v 1 h -12 v 1 h -12 v 1 h -13 v 1 h -12 v 1 h -13 v 1 h -12 v 1 h -14 v 1 h -13 v 1 h -13 v 1 h -14 v 1 h -14 v 1 h -14 v 1 h -14 v 1 h -14 v 1 h -16 v 1 h -15 v 1 h -15 v 1 h -16 v 1 h -16 v 1 h -17 v 1 h -17 v 1 h -18 v 1 h -18 v 1 h -19 v 1 h -20 v 1 h -19 v 1 h -22 v 1 h -22 v 1 h -24 v 1 h -25 v 1 h -26 v 1 h -29 v 1 h -31 v 1 h -35 v 1 h -42 v 1 h -53 v 1 h -85 v 1 h -103 v -1 h -81 v -1 h -50 v -1 h -39 v -1 h -32 v -1 h -30 v -1 h -26 v -1 h -26 v -1 h -22 v -1 h -22 v -1 h -21 v -1 h -19 v -1 h -19 v -1 h -18 v -1 h -17 v -1 h -18 v -1 h -16 v -1 h -16 v -1 h -15 v -1 h -16 v -1 h -14 v -1 h -14 v -1 h -15 v -1 h -14 v -1 h -13 v -1 h -13 v -1 h -13 v -1 h -13 v -1 h -13 v -1 h -12 v -1 h -12 v -1 h -12 v -1 h -12 v -1 h -11 v -1 h -12 v -1 h -11 v -1 h -12 v -1 h -10 v -1 h -11 v -1 h -11 v -1 h -11 v -1 h -10 v -1 h -11 v -1 h -10 v -1 h -10 v -1 h -10 v -1 h -10 v -1 h -10 v -1 h -10 v -1 h -9 v -1 h -10 v -1 h -10 v -1 h -9 v -1 h -9 v -1 h -9 v -1 h -10 v -1 h -9 v -1 h -9 v -1 h -9 v -1 h -9 v -1 h -8 v -1 h -9 v -1 h -9 v -1 h -9 v -1 h -8 v -1 h -9 v -1 h -8 v -1 h -9 v -1 h -8 v -1 h -8 v -1 h -8 v -1 h -8 v -1 h -9 v -1 h -8 v -1 h -8 v -1 h -8 v -1 h -8 v -1 h -7 v -1 h -8 v -1 h -8 v -1 h -8 v -1 h -8 v -1 h -7 v -1 h -8 v -1 h -7 v -1 h -8 v -1 h -7 v -1 h -8 v -1 h -7 v -1 h -8 v -1 h -7 v -1 h -7 v -1 h -7 v -1 h -8 v -1 h -7 v -1 h -7 v -1 h -7 v -1 h -7 v -1 h -7 v -1 h -7 v -1 h -7 v -1 h -7 v -1 h -7 v -1 h -7 v -1 h -7 v -1 h -7 v -1 h -7 v -1 h -6 v -1 h -7 v -1 h -7 v -1 h -6 v -1 h -7 v -1 h -7 v -1 h -6 v -1 h -7 v -1 h -6 v -1 h -7 v -1 h -6 v -1 h -7 v -1 h -6 v -1 h -7 v -1 h -6 v -1 h -7 v -1 h -6 v -1 h -6 v -1 h -7 v -1 h -6 v -1 h -6 v -1 h -6 v -1 h -7 v -1 h -6 v -1 h -6 v -1 h -6 v -1 h -6 v -1 h -6 v -1 h -6 v -1 h -6 v -1 h -6 v -1 h -7 v -1 h -6 v -1 h -6 v -1 h -6 v -1 h -5 v -1 h -6 v -1 h -6 v -1 h -6 v -1 h -6 v -1 h -6 v -1 h -6 v -1 h -6 v -1 h -5 v -1 h -6 v -1 h -6 v -1 h -6 v -1 h -5 v -1 h -6 v -1 h -6 v -1 h -5 v -1 h -6 v -1 h -6 v -1 h -5 v -1 h -6 v -1 h -5 v -1 h -6 v -1 h -6 v -1 h -5 v -1 h -6 v -1 h -5 v -1 h -6 v -1 h -5 v -1 h -6 v -1 h -5 v -1 h -5 v -1 h -6 v -1 h -5 v -1 h -6 v -1 h -5 v -1 h -5 v -1 h -6 v -1 h -5 v -1 h -5 v -1 h -6 v -1 h -5 v -1 h -5 v -1 h -5 v -1 h -6 v -1 h -5 v -1 h -5 v -1 h -5 v -1 h -5 v -1 h -6 v -1 h -5 v -1 h -5 v -1 h -5 v -1 h -5 v -1 h -5 v -1 h -5 v -1 h -5 v -1 h -6 v -1 h -5 v -1 h -5 v -1 h -5 v -1 h -5 v -1 h -5 v -1 h -5 v -1 h -5 v -1 h -5 v -1 h -5 v -1 h -5 v -1 h -4 v -1 h -5 v -1 h -5 v -1 h -5 v -1 h -5 v -1 h -5 v -1 h -5 v -1 h -5 v -1 h -4 v -1 h -5 v -1 h -5 v -1 h -5 v -1 h -5 v -1 h -4 v -1 h -5 v -1 h -5 v -1 h -5 v -1 h -4 v -1 h -5 v -1 h -5 v -1 h -4 v -1 h -5 v -1 h -5 v -1 h -5 v -1 h -4 v -1 h -5 v -1 h -4 v -1 h -5 v -1 h -5 v -1 h -4 v -1 h -5 v -1 h -4 v -1 h -5 v -1 h -4 v -1 h -5 v -1 h -5 v -1 h -4 v -1 h -5 v -1 h -4 v -1 h -5 v -1 h -4 v -1 h -4 v -1 h -5 v -1 h -4 v -1 h -5 v -1 h -4 v -1 h -5 v -1 h -4 v -1 h -4 v -1 h -5 v -1 h -4 v -1 h -4 v -1 h -5 v -1 h -4 v -1 h -4 v -1 h -5 v -1 h -4 v -1 h -4 v -1 h -5 v -1 h -4 v -1 h -4 v -1 h -4 v -1 h -5 v -1 h -4 v -1 h -4 v -1 h -4 v -1 h -4 v -1 h -4 v -1 h -5 v -1 h -4 v -1 h -4 v -1 h -4 v -1 h -4 v -1 h -4 v -1 h -4 v -1 h -4 v -1 h -4 v -1 h -4 v -1 h -4 v -1 h -4 v -1 h -4 v -1 h -4 v -1 h -4 v -1 h -4 v -1 h -4 v -1 h -4 v -1" /></g></g></g></g></g></g></svg>